<svg id="Group_3167" data-name="Group 3167" xmlns="http://www.w3.org/2000/svg" width="99.186" height="43.695" viewBox="0 0 99.186 43.695">
  <path id="Path_9502" data-name="Path 9502" d="M407.038,97.338l.442.32a10.241,10.241,0,0,1-3.563,3.516,9.468,9.468,0,0,1-4.983,1.385,10.26,10.26,0,0,1-4.115-.871,11.3,11.3,0,0,1-6.073-6.2,12.332,12.332,0,0,1-.956-4.839,12.581,12.581,0,0,1,.906-4.763,11.584,11.584,0,0,1,2.426-3.8,11.439,11.439,0,0,1,3.538-2.463,10.092,10.092,0,0,1,4.177-.906,8.637,8.637,0,0,1,3.87.846,7.427,7.427,0,0,1,2.758,2.266A10.589,10.589,0,0,1,407.044,85a12.438,12.438,0,0,1,.539,3.685c0,.342-.009.6-.025.758H392.275q-.122,5.805,1.752,9.038a6.214,6.214,0,0,0,5.769,3.234,7.647,7.647,0,0,0,4.2-1.225,9.162,9.162,0,0,0,3.043-3.156M392.29,88.889h10.752c.016-.2.025-.489.025-.881a18.216,18.216,0,0,0-.27-3.2,12.075,12.075,0,0,0-.834-2.78,5.04,5.04,0,0,0-1.545-2.021,3.652,3.652,0,0,0-2.278-.749,4.142,4.142,0,0,0-3.074,1.36,8.619,8.619,0,0,0-1.971,3.466,19.97,19.97,0,0,0-.805,4.8" transform="translate(-366.026 -66.965)" fill="#fff"/>
  <path id="Path_9503" data-name="Path 9503" d="M481.2,75.6V41.21a39.1,39.1,0,0,1-7.96.661v.564h3.87V57.547a7.624,7.624,0,0,0-2.5-3.159,7.328,7.328,0,0,0-4.654-1.42,9.136,9.136,0,0,0-7.1,3.294A12.263,12.263,0,0,0,459.94,64.7a13.041,13.041,0,0,0,2.889,8.609,8.943,8.943,0,0,0,7.151,3.491,5.893,5.893,0,0,0,2.247-.57c-.006-.248-1.116,0-1.062-.235-.053,0-.295.041-.348.041a4.552,4.552,0,0,1-2.9-.99,6.581,6.581,0,0,1-2.046-2.607,15.241,15.241,0,0,1-1.1-3.6,23.222,23.222,0,0,1-.354-4.165,21.148,21.148,0,0,1,.661-5.559,8.874,8.874,0,0,1,2.131-3.933,4.792,4.792,0,0,1,3.554-1.507,5.928,5.928,0,0,1,4.275,1.714,6.755,6.755,0,0,1,2.118,3.723,34.905,34.905,0,0,1,.295,5.243c0,3.212-.2,10.567,0,11.805H481.2Z" transform="translate(-415.565 -41.21)" fill="#fff"/>
  <path id="Path_9504" data-name="Path 9504" d="M548.7,80.544h3.9v.564h-7.963V58.523c3.25,0,2.009-.219,4.068-.661Zm-.379-31.451a2.395,2.395,0,0,1,0,3.381,2.426,2.426,0,0,1-3.369.013,2.453,2.453,0,0,1,0-3.4,2.324,2.324,0,0,1,1.689-.674,2.3,2.3,0,0,1,1.68.683" transform="translate(-473.467 -46.154)" fill="#fff"/>
  <path id="Path_9505" data-name="Path 9505" d="M591.386,97.467l.417.32a9.592,9.592,0,0,1-3.491,3.416,9.42,9.42,0,0,1-4.886,1.36,10.348,10.348,0,0,1-3.993-.821,12.3,12.3,0,0,1-3.613-2.3,11.015,11.015,0,0,1-2.645-3.8,12.987,12.987,0,0,1-.022-10.016,10.851,10.851,0,0,1,2.62-3.773,12.321,12.321,0,0,1,3.626-2.3,10.683,10.683,0,0,1,4.08-.821,9.145,9.145,0,0,1,5.437,1.617,4.733,4.733,0,0,1,2.278,3.942,2.99,2.99,0,0,1-.758,2.131,2.509,2.509,0,0,1-1.912.809,2.431,2.431,0,0,1-1.789-.711,2.484,2.484,0,0,1-.038-3.441,2.2,2.2,0,0,1,1.655-.7,2.423,2.423,0,0,1,2.325,1.764,4.362,4.362,0,0,0-1.946-3.259,7.234,7.234,0,0,0-4.616-1.495,6.288,6.288,0,0,0-3.4.918,6.741,6.741,0,0,0-2.341,2.51,13.279,13.279,0,0,0-1.3,3.563,20.046,20.046,0,0,0-.429,4.249,19.506,19.506,0,0,0,.429,4.2,12.665,12.665,0,0,0,1.31,3.516,6.663,6.663,0,0,0,2.363,2.473,6.452,6.452,0,0,0,3.441.906,7.8,7.8,0,0,0,4.177-1.188,8.789,8.789,0,0,0,3.021-3.068" transform="translate(-492.617 -66.972)" fill="#fff"/>
  <path id="Path_9506" data-name="Path 9506" d="M437.525,129.058a2.413,2.413,0,0,0,2.325-1.764,4.079,4.079,0,0,1-1.52,2.9,2.913,2.913,0,0,1,.458.329,4.456,4.456,0,0,0,1.579-3.372,2.99,2.99,0,0,0-.758-2.131,2.512,2.512,0,0,0-1.909-.809,2.43,2.43,0,0,0-1.789.711,2.484,2.484,0,0,0-.038,3.441,2.215,2.215,0,0,0,1.652.7" transform="translate(-398.578 -98.199)" fill="#fff"/>
  <path id="Path_9507" data-name="Path 9507" d="M494.434,136.423a2.418,2.418,0,0,0-1.689-.918,2.487,2.487,0,0,0-2.667,2.175,2.207,2.207,0,0,0,.523,1.717,2.423,2.423,0,0,0,2.846.658,3.7,3.7,0,0,1-2.36.74c.091.182.185.367.279.548a4.237,4.237,0,0,0,2.523-.987,2.975,2.975,0,0,0,1.15-1.946,2.518,2.518,0,0,0-.6-1.987" transform="translate(-436.248 -105.946)" fill="#fff"/>
  <path id="Path_9508" data-name="Path 9508" d="M331.74,98.267l-6.368-17.023h3.648V80.68H318.34v.564h2.745l8.571,22.363h.539l1.821-4.616-.273-.73Z" transform="translate(-318.34 -68.311)" fill="#fff"/>
  <path id="Path_9509" data-name="Path 9509" d="M366.1,80.68v.564h.244q3.013,0,3.012,2.94a13.259,13.259,0,0,1-1.1,4.557l-1.188,3.037.285.765,1.539-3.9a24.76,24.76,0,0,1,2.867-5.622,3.766,3.766,0,0,1,2.965-1.777h.1V80.68Z" transform="translate(-351.133 -68.311)" fill="#fff"/>
  <g id="Group_3146" data-name="Group 3146" transform="translate(1.705 38.656)">
    <path id="Path_9510" data-name="Path 9510" d="M326.494,169.527H323.78V164.56h2.714v.32h-2.369v1.88h2.234v.32h-2.234v2.131h2.369Z" transform="translate(-323.78 -164.56)" fill="#fff"/>
  </g>
  <g id="Group_3147" data-name="Group 3147" transform="translate(8.584 38.336)">
    <path id="Path_9511" data-name="Path 9511" d="M347.3,165.063a1.535,1.535,0,0,1,.693.147,1.378,1.378,0,0,1,.523.5h.022c-.013-.285-.022-.564-.022-.84V163.54h.332v5.287h-.222l-.085-.564h-.028a1.371,1.371,0,0,1-1.21.633,1.45,1.45,0,0,1-1.169-.476,2.087,2.087,0,0,1-.4-1.385,2.313,2.313,0,0,1,.4-1.463A1.409,1.409,0,0,1,347.3,165.063Zm0,.307a1.041,1.041,0,0,0-.909.426,2.094,2.094,0,0,0-.3,1.235q0,1.57,1.219,1.57a1.115,1.115,0,0,0,.918-.364,1.912,1.912,0,0,0,.291-1.2v-.056a2.059,2.059,0,0,0-.288-1.232A1.087,1.087,0,0,0,347.3,165.37Z" transform="translate(-345.73 -163.54)" fill="#fff"/>
  </g>
  <g id="Group_3148" data-name="Group 3148" transform="translate(16.233 39.931)">
    <path id="Path_9512" data-name="Path 9512" d="M370.472,168.63v2.391a1.168,1.168,0,0,0,.235.812.944.944,0,0,0,.727.254,1.276,1.276,0,0,0,.971-.332,1.546,1.546,0,0,0,.31-1.084v-2.037h.332v3.695h-.285l-.063-.511h-.019a1.389,1.389,0,0,1-1.282.577q-1.26,0-1.26-1.348v-2.413h.332Z" transform="translate(-370.14 -168.63)" fill="#fff"/>
  </g>
  <g id="Group_3149" data-name="Group 3149" transform="translate(23.504 39.859)">
    <path id="Path_9513" data-name="Path 9513" d="M395.029,172.233a1.59,1.59,0,0,1-1.241-.5,2,2,0,0,1-.448-1.395,2.049,2.049,0,0,1,.467-1.429,1.637,1.637,0,0,1,1.275-.511,2.6,2.6,0,0,1,.918.166l-.091.3a2.684,2.684,0,0,0-.834-.16,1.27,1.27,0,0,0-1.031.42,1.846,1.846,0,0,0-.351,1.207,1.785,1.785,0,0,0,.351,1.172,1.2,1.2,0,0,0,.978.423,2.363,2.363,0,0,0,.934-.182v.313A2.057,2.057,0,0,1,395.029,172.233Z" transform="translate(-393.34 -168.4)" fill="#fff"/>
  </g>
  <g id="Group_3150" data-name="Group 3150" transform="translate(30.072 39.041)">
    <path id="Path_9514" data-name="Path 9514" d="M416.829,172.164l-.085-.586h-.028a1.714,1.714,0,0,1-.573.5,1.55,1.55,0,0,1-.7.147,1.2,1.2,0,0,1-.846-.279,1,1,0,0,1-.3-.771.953.953,0,0,1,.451-.84,2.447,2.447,0,0,1,1.3-.317l.7-.022v-.244a1.269,1.269,0,0,0-.213-.8.833.833,0,0,0-.689-.27,2.292,2.292,0,0,0-1.062.285l-.125-.291a2.8,2.8,0,0,1,1.2-.285,1.2,1.2,0,0,1,.909.317,1.385,1.385,0,0,1,.3.984v2.457h-.251Zm-1.36-.238a1.177,1.177,0,0,0,1.275-1.279v-.364l-.646.028a2.427,2.427,0,0,0-1.109.244.7.7,0,0,0-.332.639.692.692,0,0,0,.213.539A.859.859,0,0,0,415.469,171.926Z" transform="translate(-414.3 -167.582)" fill="#fff"/>
    <path id="Path_9515" data-name="Path 9515" d="M437.437,170.143a2.653,2.653,0,0,0,.558-.053v.273a1.814,1.814,0,0,1-.564.081.92.92,0,0,1-.721-.26,1.206,1.206,0,0,1-.232-.821v-2.385h-.548v-.2l.548-.154.169-.837h.172v.893H437.9v.291H436.82v2.338a1.073,1.073,0,0,0,.15.63A.553.553,0,0,0,437.437,170.143Z" transform="translate(-429.151 -165.79)" fill="#fff"/>
  </g>
  <g id="Group_3151" data-name="Group 3151" transform="translate(43.009 38.577)">
    <path id="Path_9516" data-name="Path 9516" d="M455.58,164.636c0-.216.072-.326.213-.326a.2.2,0,0,1,.166.085.41.41,0,0,1,.06.241.417.417,0,0,1-.06.241.187.187,0,0,1-.166.088C455.652,164.968,455.58,164.855,455.58,164.636Zm.385,4.72h-.335v-3.695h.335Z" transform="translate(-455.58 -164.31)" fill="#fff"/>
  </g>
  <g id="Group_3152" data-name="Group 3152" transform="translate(47.75 39.856)">
    <path id="Path_9517" data-name="Path 9517" d="M473.979,170.3a2.093,2.093,0,0,1-.439,1.41,1.513,1.513,0,0,1-1.21.508,1.565,1.565,0,0,1-.856-.235,1.489,1.489,0,0,1-.567-.674,2.451,2.451,0,0,1-.2-1.012,2.078,2.078,0,0,1,.439-1.407,1.512,1.512,0,0,1,1.2-.5,1.477,1.477,0,0,1,1.194.511A2.113,2.113,0,0,1,473.979,170.3Zm-2.918,0a1.885,1.885,0,0,0,.335,1.188,1.264,1.264,0,0,0,1.893,0,1.885,1.885,0,0,0,.335-1.188,1.839,1.839,0,0,0-.338-1.185,1.277,1.277,0,0,0-1.893,0A1.877,1.877,0,0,0,471.061,170.3Z" transform="translate(-470.71 -168.39)" fill="#fff"/>
    <path id="Path_9518" data-name="Path 9518" d="M497.636,172.157v-2.394a1.168,1.168,0,0,0-.235-.812.944.944,0,0,0-.727-.254,1.267,1.267,0,0,0-.972.335,1.584,1.584,0,0,0-.307,1.084v2.037h-.335v-3.695h.285l.066.508h.022a1.389,1.389,0,0,1,1.282-.577q1.255,0,1.257,1.348v2.416h-.335Z" transform="translate(-487.429 -168.39)" fill="#fff"/>
    <path id="Path_9519" data-name="Path 9519" d="M520.429,172.164l-.085-.586h-.028a1.714,1.714,0,0,1-.574.5,1.55,1.55,0,0,1-.7.147,1.2,1.2,0,0,1-.846-.279,1,1,0,0,1-.3-.771.954.954,0,0,1,.451-.84,2.447,2.447,0,0,1,1.3-.317l.7-.022v-.244a1.27,1.27,0,0,0-.213-.8.834.834,0,0,0-.69-.27,2.292,2.292,0,0,0-1.062.285l-.125-.291a2.8,2.8,0,0,1,1.2-.285,1.2,1.2,0,0,1,.909.317,1.385,1.385,0,0,1,.3.984v2.457h-.251Zm-1.36-.238a1.177,1.177,0,0,0,1.275-1.279v-.364l-.645.028a2.427,2.427,0,0,0-1.109.244.7.7,0,0,0-.332.639.692.692,0,0,0,.213.539A.859.859,0,0,0,519.069,171.926Z" transform="translate(-503.111 -168.397)" fill="#fff"/>
  </g>
  <g id="Group_3153" data-name="Group 3153" transform="translate(69.856 38.336)">
    <path id="Path_9520" data-name="Path 9520" d="M541.585,168.827h-.335V163.54h.335Z" transform="translate(-541.25 -163.54)" fill="#fff"/>
  </g>
  <g id="Group_3154" data-name="Group 3154" transform="translate(79.991 38.656)">
    <path id="Path_9521" data-name="Path 9521" d="M577.191,169.527h-.351v-2.444h-2.9v2.444h-.348V164.56h.348v2.206h2.9V164.56h.351Z" transform="translate(-573.59 -164.56)" fill="#fff"/>
  </g>
  <g id="Group_3155" data-name="Group 3155" transform="translate(88.205 39.931)">
    <path id="Path_9522" data-name="Path 9522" d="M600.132,168.63v2.391a1.168,1.168,0,0,0,.235.812.944.944,0,0,0,.727.254,1.276,1.276,0,0,0,.971-.332,1.546,1.546,0,0,0,.31-1.084v-2.037h.332v3.695h-.285l-.063-.511h-.019a1.389,1.389,0,0,1-1.282.577q-1.26,0-1.26-1.348v-2.413h.332Z" transform="translate(-599.8 -168.63)" fill="#fff"/>
  </g>
  <g id="Group_3156" data-name="Group 3156" transform="translate(95.692 38.339)">
    <path id="Path_9523" data-name="Path 9523" d="M625.251,165.07a1.4,1.4,0,0,1,1.166.489,2.241,2.241,0,0,1,.392,1.426,2.166,2.166,0,0,1-.414,1.42,1.422,1.422,0,0,1-1.159.5,1.524,1.524,0,0,1-.711-.163,1.261,1.261,0,0,1-.5-.461h-.031l-.094.558h-.21V163.55h.335v1.329c0,.2,0,.382-.013.552l-.009.288h.025a1.346,1.346,0,0,1,.508-.489A1.485,1.485,0,0,1,625.251,165.07Zm-.009.307a1.1,1.1,0,0,0-.934.373,2.084,2.084,0,0,0-.282,1.235v.056a1.917,1.917,0,0,0,.295,1.2,1.1,1.1,0,0,0,.915.364,1.056,1.056,0,0,0,.912-.423,2.032,2.032,0,0,0,.307-1.2C626.451,165.91,626.05,165.377,625.241,165.377Z" transform="translate(-623.69 -163.55)" fill="#fff"/>
  </g>
</svg>
